<svg width="17" height="21" viewBox="0 0 17 21" fill="none" xmlns="http://www.w3.org/2000/svg">
<path d="M12.096 1.89171C11.9042 2.48027 11.5939 3.02577 11.22 3.47946V3.4803C10.8426 3.93659 10.3386 4.34002 9.77782 4.60751C9.26317 4.853 8.69904 4.9852 8.13767 4.94144L7.96587 4.92805L7.94324 4.75699C7.87031 4.20531 7.95453 3.64682 8.13191 3.13C8.33832 2.52858 8.67266 1.97982 9.03142 1.56399L9.03136 1.56393C9.40261 1.12904 9.90049 0.75065 10.4337 0.476488C10.9687 0.201385 11.5432 0.029361 12.0662 0.00805505L12.2639 0L12.2855 0.197491C12.3489 0.77508 12.2718 1.35204 12.096 1.89172L12.096 1.89171Z" fill="black"/>
<path d="M15.7303 8.08012C15.5408 8.19737 13.709 9.33081 13.7317 11.6154C13.7557 14.3697 16.091 15.3244 16.2199 15.3771H16.2208L16.2263 15.3794L16.4096 15.4553L16.3468 15.6428C16.3431 15.6539 16.3473 15.6421 16.3419 15.6595C16.2823 15.8504 15.8784 17.1446 14.9658 18.478C14.5518 19.0828 14.1299 19.6868 13.6318 20.1526C13.116 20.635 12.527 20.9605 11.7994 20.9741C11.1136 20.9869 10.6646 20.7927 10.1979 20.5907C9.7528 20.3981 9.28996 20.1979 8.56566 20.1979C7.8048 20.1979 7.31844 20.405 6.84996 20.6046C6.40897 20.7925 5.98248 20.9742 5.36805 20.9987H5.36722C4.65774 21.0251 4.04251 20.6792 3.49575 20.1669C2.97264 19.6769 2.51434 19.0351 2.0967 18.4311C1.15394 17.0698 0.334048 15.0891 0.0807347 13.0751C-0.127621 11.4185 0.0465377 9.73562 0.847462 8.3458C1.29457 7.56818 1.91947 6.93356 2.65007 6.49075C3.37734 6.04996 4.20942 5.79912 5.07553 5.78613V5.78612C5.83381 5.77236 6.54879 6.0561 7.17441 6.30437C7.61717 6.48007 8.01165 6.63663 8.30739 6.63663C8.56866 6.63663 8.95378 6.48478 9.40273 6.30778C10.161 6.00884 11.0886 5.64316 12.0694 5.74069C12.4814 5.75861 13.3394 5.85728 14.2164 6.33259C14.7751 6.63539 15.3418 7.08999 15.8077 7.77178L15.9305 7.95158L15.747 8.07006C15.7372 8.07641 15.7468 8.06994 15.7303 8.08011L15.7303 8.08012Z" fill="black"/>
</svg>
