<svg width="95" height="95" viewBox="0 0 95 95" fill="none" xmlns="http://www.w3.org/2000/svg">
<circle cx="82.5" cy="82.5" r="12.5" fill="#FFF6D8"/>
<path d="M85.3214 77.4596C85.4671 77.3139 85.6401 77.1983 85.8304 77.1194C86.0208 77.0406 86.2248 77 86.4309 77C86.637 77 86.841 77.0406 87.0314 77.1194C87.2217 77.1983 87.3947 77.3139 87.5404 77.4596C87.6861 77.6053 87.8017 77.7783 87.8806 77.9686C87.9594 78.159 88 78.363 88 78.5691C88 78.7752 87.9594 78.9792 87.8806 79.1696C87.8017 79.3599 87.6861 79.5329 87.5404 79.6786L80.0512 87.1679L77 88L77.8321 84.9488L85.3214 77.4596Z" stroke="#FFD13B" stroke-width="1.5" stroke-linecap="round" stroke-linejoin="round"/>
</svg>
