<svg width="20" height="20" viewBox="0 0 20 20" fill="none" xmlns="http://www.w3.org/2000/svg">
<path fill-rule="evenodd" clip-rule="evenodd" d="M4.31055 10.0003C4.31055 9.35075 4.41837 8.72794 4.61102 8.14389L1.24073 5.57031C0.583864 6.9039 0.213867 8.4067 0.213867 10.0003C0.213867 11.5926 0.583552 13.0943 1.23933 14.4271L4.60774 11.8485C4.41696 11.2671 4.31055 10.6467 4.31055 10.0003Z" fill="#FBBC05"/>
<path fill-rule="evenodd" clip-rule="evenodd" d="M10.2275 4.09091C11.6386 4.09091 12.9131 4.5909 13.9145 5.40902L16.8276 2.49998C15.0525 0.954524 12.7766 0 10.2275 0C6.27004 0 2.86882 2.26311 1.24023 5.56996L4.61036 8.14353C5.38692 5.78636 7.6005 4.09091 10.2275 4.09091Z" fill="#EA4335"/>
<path fill-rule="evenodd" clip-rule="evenodd" d="M10.2275 15.9081C7.60065 15.9081 5.38708 14.2126 4.61052 11.8555L1.24023 14.4286C2.86882 17.7359 6.27004 19.999 10.2275 19.999C12.67 19.999 15.002 19.1317 16.7521 17.5067L13.5531 15.0336C12.6505 15.6022 11.5137 15.9081 10.2275 15.9081Z" fill="#34A853"/>
<path fill-rule="evenodd" clip-rule="evenodd" d="M19.7864 9.99975C19.7864 9.40882 19.6953 8.77242 19.5587 8.18164H10.2275V12.0452H15.5987C15.3302 13.3625 14.5992 14.3752 13.5531 15.0342L16.7522 17.5073C18.5906 15.8011 19.7864 13.2593 19.7864 9.99975Z" fill="#4285F4"/>
</svg>
