<svg width="55" height="41" viewBox="0 0 55 41" fill="none" xmlns="http://www.w3.org/2000/svg">
<path d="M52.25 29.4113C50.7313 29.4113 49.5 28.5939 49.5 27.5857V14.3022C49.5 13.294 50.7313 12.4766 52.25 12.4766C53.7687 12.4766 55.0001 13.294 55.0001 14.3022V27.5857C55.0001 28.5939 53.7687 29.4113 52.25 29.4113Z" fill="#FFD13B"/>
<path d="M2.75003 29.4113C1.23134 29.4113 0 28.5939 0 27.5857V14.3022C0 13.294 1.23134 12.4766 2.75003 12.4766C4.26871 12.4766 5.50006 13.294 5.50006 14.3022V27.5857C5.50006 28.5939 4.26871 29.4113 2.75003 29.4113Z" fill="#FFD13B"/>
<path d="M40.1485 33.8732C38.6298 33.8732 37.3984 32.5825 37.3984 30.9905V10.0155C37.3984 8.42357 38.6298 7.13281 40.1485 7.13281C41.6671 7.13281 42.8985 8.42357 42.8985 10.0155V30.9905C42.8985 32.5825 41.6671 33.8732 40.1485 33.8732Z" fill="#FFD13B"/>
<path d="M14.8516 31.197C13.3329 31.197 12.1016 30.1645 12.1016 28.8907V12.111C12.1016 10.8372 13.3329 9.80469 14.8516 9.80469C16.3703 9.80469 17.6016 10.8372 17.6016 12.111V28.8907C17.6016 30.1645 16.3703 31.197 14.8516 31.197Z" fill="#FFD13B"/>
<path d="M27.5002 41.002C25.6778 41.002 24.2002 39.7362 24.2002 38.1751V2.82684C24.2002 1.26574 25.6778 0 27.5002 0C29.3226 0 30.8003 1.26574 30.8003 2.82684V38.1751C30.8003 39.7362 29.3226 41.002 27.5002 41.002Z" fill="#FFD13B"/>
</svg>
