<svg width="19" height="24" viewBox="0 0 19 24" fill="none" xmlns="http://www.w3.org/2000/svg">
<path d="M7.80859 6.5C7.85652 6.5 7.90439 6.51081 7.94727 6.53223L12.3291 8.72363C12.4338 8.77598 12.5 8.88295 12.5 9C12.5 9.11705 12.4338 9.22402 12.3291 9.27637L7.94727 11.4678C7.90439 11.4892 7.85652 11.5 7.80859 11.5C7.63826 11.4998 7.50023 11.3617 7.5 11.1914V6.80859C7.50023 6.63826 7.63826 6.50023 7.80859 6.5Z" stroke="white"/>
<path d="M4 0.5H15C16.933 0.5 18.5 2.067 18.5 4V20.4346C18.4997 21.6057 17.2172 22.3245 16.2178 21.7139L10.8037 18.4062C10.0035 17.9173 8.9965 17.9173 8.19629 18.4062L2.78223 21.7139C1.78281 22.3245 0.500302 21.6057 0.5 20.4346V4C0.5 2.067 2.067 0.5 4 0.5Z" stroke="white"/>
</svg>
